<svg aria-hidden="true" style="position: absolute; width: 0; height: 0; overflow: hidden;" version="1.1" xmlns="http://www.w3.org/2000/svg" xmlns:xlink="http://www.w3.org/1999/xlink">
<defs>
<symbol id="icon-arrow-1" viewBox="0 0 32 32">
<path d="M23.071 9.321c0.285-0.237 0.747-0.237 1.031 0l7.684 6.399 0.086 0.086c0.199 0.241 0.166 0.574-0.098 0.783l-7.684 6.101-0.103 0.068c-0.289 0.158-0.681 0.127-0.928-0.089l-0.082-0.086c-0.19-0.241-0.153-0.567 0.107-0.773l6.359-5.048-28.085-0.012c-0.339-0.064-0.595-0.376-0.595-0.75 0-0.421 0.325-0.762 0.726-0.762h27.659l-6.076-5.059-0.084-0.084c-0.197-0.237-0.169-0.564 0.084-0.775z"></path>
</symbol>
<symbol id="icon-arrow-2" viewBox="0 0 18 32">
<path d="M2.265 0.353c-0.531-0.483-1.358-0.469-1.871 0.032s-0.528 1.309-0.033 1.827l14.368 14.033-14.368 13.542c-0.495 0.518-0.48 1.326 0.033 1.827s1.34 0.515 1.871 0.032l16.020-15.401-16.020-15.893z"></path>
</symbol>
<symbol id="icon-arrow-3" viewBox="0 0 18 32">
<path d="M16.020 0.353c0.531-0.483 1.358-0.469 1.871 0.032s0.528 1.309 0.033 1.827l-14.368 14.033 14.368 13.542c0.494 0.518 0.48 1.326-0.033 1.827s-1.34 0.515-1.871 0.032l-16.020-15.401 16.020-15.893z"></path>
</symbol>
<symbol id="icon-arrow-4" viewBox="0 0 32 32">
<path d="M23.414 3.414c0.781-0.781 0.781-2.047 0-2.828s-2.047-0.781-2.828 0l-13.333 13.333c-0.781 0.781-0.781 2.047 0 2.828l13.333 13.333c0.781 0.781 2.047 0.781 2.828 0s0.781-2.047 0-2.828l-11.919-11.919 11.919-11.919z"></path>
</symbol>
<symbol id="icon-arrow-5" viewBox="0 0 32 32">
<path d="M7.252 3.414c-0.781-0.781-0.781-2.047 0-2.828s2.047-0.781 2.828 0l13.333 13.333c0.781 0.781 0.781 2.047 0 2.828l-13.333 13.333c-0.781 0.781-2.047 0.781-2.828 0s-0.781-2.047 0-2.828l11.919-11.919-11.919-11.919z"></path>
</symbol>
<symbol id="icon-arrow-6" viewBox="0 0 32 32">
<path d="M27.253 23.414c0.781 0.781 2.047 0.781 2.828 0s0.781-2.047 0-2.828l-13.333-13.333c-0.781-0.781-2.047-0.781-2.828 0l-13.333 13.333c-0.781 0.781-0.781 2.047 0 2.828s2.047 0.781 2.828 0l11.919-11.919 11.919 11.919z"></path>
</symbol>
<symbol id="icon-arrow-7" viewBox="0 0 32 32">
<path d="M27.253 7.252c0.781-0.781 2.047-0.781 2.828 0s0.781 2.047 0 2.828l-13.333 13.333c-0.781 0.781-2.047 0.781-2.828 0l-13.333-13.333c-0.781-0.781-0.781-2.047 0-2.828s2.047-0.781 2.828 0l11.919 11.919 11.919-11.919z"></path>
</symbol>
<symbol id="icon-arrow" viewBox="0 0 32 32">
<path d="M8.929 9.321c-0.285-0.237-0.747-0.237-1.031 0l-7.684 6.399-0.086 0.086c-0.199 0.241-0.165 0.574 0.098 0.783l7.684 6.101 0.103 0.068c0.289 0.158 0.681 0.127 0.928-0.089l0.082-0.086c0.19-0.241 0.153-0.567-0.107-0.773l-6.358-5.048 28.846-0.012c0.338-0.064 0.595-0.376 0.595-0.75 0-0.421-0.325-0.762-0.726-0.762h-28.421l6.076-5.059 0.084-0.084c0.197-0.237 0.169-0.564-0.084-0.775z"></path>
</symbol>
<symbol id="icon-rectangle-up" viewBox="0 0 32 32">
<path d="M31.799 23.642l-15.314-16.317c-0.268-0.285-0.702-0.285-0.97 0l-15.314 16.317c-0.268 0.285-0.268 0.748 0 1.033 0.129 0.137 0.303 0.214 0.485 0.214h30.629c0.379 0 0.686-0.327 0.686-0.731 0-0.194-0.072-0.38-0.201-0.517z"></path>
</symbol>
<symbol id="icon-rectangle-down" viewBox="0 0 32 32">
<path d="M31.799 8.358l-15.314 16.317c-0.268 0.285-0.702 0.285-0.97 0l-15.314-16.317c-0.268-0.285-0.268-0.748 0-1.033 0.129-0.137 0.303-0.214 0.485-0.214h30.629c0.379 0 0.686 0.327 0.686 0.731 0 0.194-0.072 0.38-0.201 0.517z"></path>
</symbol>
<symbol id="icon-cart" viewBox="0 0 31 32">
<path d="M5.362 4.571l-0.482-1.977c-0.376-1.525-1.721-2.594-3.264-2.594h-1.615v2.286h1.615c0.528-0.016 0.995 0.346 1.122 0.869l3.993 16.549 0.415 1.703c0.378 1.537 1.742 2.61 3.298 2.594h15.357v-2.286h-15.357c-0.528 0.016-0.995-0.346-1.122-0.869l-0.135-0.572 16.613-3.988c1.228-0.291 2.194-1.257 2.502-2.503l2.244-9.211h-25.183zM26.171 13.234c-0.104 0.417-0.429 0.74-0.841 0.834l-16.658 3.989-2.748-11.2h21.807l-1.559 6.377zM5.609 28.571c0-1.894 1.507-3.428 3.365-3.428s3.365 1.535 3.365 3.428c0 1.894-1.507 3.428-3.365 3.428s-3.365-1.535-3.365-3.428zM7.852 28.571c0 0.631 0.502 1.143 1.122 1.143s1.122-0.512 1.122-1.143c0-0.631-0.502-1.143-1.122-1.143s-1.122 0.512-1.122 1.143zM19.326 27.259c0.521-1.281 1.748-2.116 3.109-2.116 1.858 0 3.365 1.535 3.365 3.428 0 1.387-0.82 2.637-2.077 3.168s-2.705 0.237-3.668-0.743c-0.962-0.98-1.25-2.455-0.729-3.736zM21.313 28.571c0 0.631 0.502 1.143 1.122 1.143s1.122-0.512 1.122-1.143-0.502-1.143-1.122-1.143c-0.62 0-1.122 0.512-1.122 1.143z"></path>
</symbol>
<symbol id="icon-favorite" viewBox="0 0 36 32">
<path d="M17.687 32l-14.733-14.664c-3.938-3.987-3.938-10.387 0-14.374 1.896-1.896 4.472-2.962 7.158-2.962s5.261 1.066 7.158 2.962l0.417 0.428 0.417-0.428c1.897-1.896 4.472-2.962 7.158-2.962s5.261 1.066 7.158 2.962c3.932 3.99 3.932 10.384 0 14.374l-14.733 14.664zM10.106 2.509c-2.018-0.007-3.953 0.797-5.37 2.23-2.959 3.004-2.959 7.817 0 10.822l12.951 12.888 12.951-12.888c2.959-3.004 2.959-7.817 0-10.822-1.422-1.419-3.352-2.217-5.364-2.217s-3.942 0.797-5.364 2.217l-2.224 2.192-2.211-2.179c-1.419-1.43-3.352-2.237-5.37-2.242z"></path>
</symbol>
<symbol id="icon-search" viewBox="0 0 32 32">
<path d="M12.541 25.081c-6.926 0-12.541-5.615-12.541-12.541s5.615-12.541 12.541-12.541c6.926 0 12.541 5.615 12.541 12.541 0 2.996-1.050 5.746-2.803 7.903l9.342 9.342c0.507 0.506 0.507 1.328 0 1.834s-1.328 0.507-1.834 0l-9.342-9.342c-2.157 1.753-4.907 2.803-7.903 2.803zM12.541 22.487c5.493 0 9.946-4.453 9.946-9.946s-4.453-9.946-9.946-9.946c-5.493 0-9.946 4.453-9.946 9.946s4.453 9.946 9.946 9.946z"></path>
</symbol>
<symbol id="icon-phone" viewBox="0 0 32 32">
<path d="M24 18.149l-5.634 2.823c-0.354 0.204-0.789 0.204-1.143 0-2.415-1.67-4.506-3.765-6.171-6.183-0.204-0.354-0.204-0.789 0-1.143l2.8-5.646-4-8h-9.851v1.143c0 17.042 13.815 30.857 30.857 30.857h1.143v-9.851l-8-4zM29.714 29.714c-14.899-0.585-26.844-12.529-27.429-27.429h6.149l2.857 5.714-2.286 4.571c-0.547 1.099-0.464 2.407 0.217 3.429 1.818 2.683 4.116 5.008 6.777 6.857 1.022 0.681 2.329 0.764 3.429 0.217l4.571-2.286 5.714 2.857v6.068z"></path>
</symbol>
<symbol id="icon-filter" viewBox="0 0 34 32">
<path d="M1.203 5.617h2.173c0.534 1.899 2.266 3.211 4.239 3.211s3.705-1.312 4.239-3.211h20.628c0.664 0 1.203-0.539 1.203-1.203s-0.539-1.203-1.203-1.203h-20.62c-0.534-1.899-2.266-3.211-4.239-3.211s-3.705 1.312-4.239 3.211h-2.181c-0.664 0-1.203 0.539-1.203 1.203s0.539 1.203 1.203 1.203zM7.619 2.409c1.107 0 2.005 0.898 2.005 2.005s-0.898 2.005-2.005 2.005c-1.107 0-2.005-0.898-2.005-2.005s0.898-2.005 2.005-2.005zM32.481 14.439h-11.533c-0.656-1.696-2.288-2.814-4.106-2.814s-3.45 1.118-4.106 2.814h-11.533c-0.664 0-1.203 0.539-1.203 1.203s0.539 1.203 1.203 1.203h11.308c0.393 2.085 2.213 3.595 4.335 3.595s3.942-1.51 4.335-3.595h11.3c0.664 0 1.203-0.539 1.203-1.203s-0.539-1.203-1.203-1.203zM16.842 18.048c-1.107 0-2.005-0.898-2.005-2.005s0.898-2.005 2.005-2.005c1.107 0 2.005 0.898 2.005 2.005s-0.898 2.005-2.005 2.005zM30.308 25.667h2.173c0.664 0 1.203 0.539 1.203 1.203s-0.539 1.203-1.203 1.203h-2.181c-0.534 1.899-2.266 3.211-4.239 3.211s-3.705-1.312-4.239-3.211h-20.619c-0.664 0-1.203-0.539-1.203-1.203s0.539-1.203 1.203-1.203h20.628c0.534-1.899 2.266-3.211 4.239-3.211s3.705 1.312 4.238 3.211zM24.060 26.87c0 1.107 0.898 2.005 2.005 2.005s2.005-0.898 2.005-2.005c0-1.107-0.898-2.005-2.005-2.005s-2.005 0.898-2.005 2.005z"></path>
</symbol>
<symbol id="icon-clear" viewBox="0 0 27 32">
<path d="M12 2.667c-0.736 0-1.333 0.597-1.333 1.333v1.333h5.333v-1.333c0-0.736-0.597-1.333-1.333-1.333h-2.667zM18.667 5.333h6.667c0.736 0 1.333 0.597 1.333 1.333s-0.597 1.333-1.333 1.333h-0.14l-2.272 20.441c-0.224 2.027-1.936 3.559-3.975 3.559h-11.227c-2.039 0-3.751-1.532-3.976-3.559l-2.271-20.441h-0.14c-0.736 0-1.333-0.597-1.333-1.333s0.597-1.333 1.333-1.333h6.667v-1.333c0-2.209 1.791-4 4-4h2.667c2.209 0 4 1.791 4 4v1.333zM22.511 8h-18.355l2.239 20.147c0.076 0.676 0.647 1.187 1.325 1.187h11.227c0.679 0 1.249-0.511 1.325-1.187l2.239-20.147zM10.667 12c-0.736 0-1.333 0.597-1.333 1.333v10.667c0 0.736 0.597 1.333 1.333 1.333s1.333-0.597 1.333-1.333v-10.667c0-0.736-0.597-1.333-1.333-1.333zM16 12c-0.736 0-1.333 0.597-1.333 1.333v10.667c0 0.736 0.597 1.333 1.333 1.333s1.333-0.597 1.333-1.333v-10.667c0-0.736-0.597-1.333-1.333-1.333z"></path>
</symbol>
<symbol id="icon-telegram" viewBox="0 0 38 32">
<path d="M14.16 29.663c0.866 0 1.248-0.396 1.731-0.866l4.158-4.043 8.651 6.392c1.592 0.879 2.741 0.424 3.138-1.478l5.679-26.762c0.581-2.331-0.889-3.388-2.412-2.697l-33.348 12.859c-2.276 0.913-2.263 2.183-0.415 2.749l8.558 2.671 19.812-12.499c0.935-0.567 1.794-0.262 1.089 0.363l-16.053 14.487-0.589 8.825z"></path>
</symbol>
<symbol id="icon-instagram" viewBox="0 0 32 32">
<path d="M16.001-0.002c-4.346 0-4.891 0.019-6.598 0.097-1.703 0.078-2.866 0.348-3.884 0.743-1.052 0.409-1.945 0.955-2.834 1.845s-1.437 1.782-1.847 2.834c-0.397 1.018-0.667 2.181-0.743 3.884-0.076 1.707-0.096 2.252-0.096 6.598s0.019 4.889 0.097 6.596c0.078 1.704 0.348 2.866 0.743 3.884 0.409 1.052 0.956 1.945 1.845 2.834s1.782 1.438 2.834 1.847c1.018 0.396 2.181 0.665 3.884 0.743 1.707 0.078 2.252 0.097 6.597 0.097s4.89-0.019 6.596-0.097c1.704-0.078 2.868-0.348 3.886-0.743 1.052-0.409 1.944-0.957 2.832-1.847 0.89-0.889 1.437-1.782 1.847-2.834 0.393-1.018 0.663-2.181 0.743-3.884 0.077-1.707 0.097-2.251 0.097-6.596s-0.020-4.891-0.097-6.598c-0.080-1.703-0.35-2.866-0.743-3.884-0.41-1.052-0.957-1.945-1.847-2.834s-1.78-1.437-2.833-1.845c-1.020-0.396-2.184-0.665-3.887-0.743-1.707-0.078-2.25-0.097-6.597-0.097h0.005zM14.565 2.882c0.279-0 0.578-0 0.902-0l0.534 0c4.272 0 4.779 0.015 6.466 0.092 1.56 0.071 2.407 0.332 2.971 0.551 0.747 0.29 1.279 0.637 1.839 1.197s0.907 1.093 1.197 1.84c0.219 0.563 0.48 1.41 0.551 2.97 0.077 1.687 0.093 2.193 0.093 6.464s-0.017 4.777-0.093 6.464c-0.071 1.56-0.332 2.407-0.551 2.97-0.29 0.747-0.637 1.278-1.197 1.838s-1.092 0.907-1.839 1.197c-0.563 0.22-1.411 0.48-2.971 0.551-1.687 0.077-2.193 0.093-6.466 0.093s-4.779-0.017-6.466-0.093c-1.56-0.072-2.407-0.333-2.971-0.552-0.747-0.29-1.28-0.637-1.84-1.197s-0.907-1.092-1.197-1.839c-0.219-0.563-0.48-1.41-0.551-2.97-0.077-1.687-0.092-2.193-0.092-6.466s0.015-4.777 0.092-6.464c0.071-1.56 0.332-2.407 0.551-2.971 0.29-0.747 0.637-1.28 1.197-1.84s1.093-0.907 1.84-1.197c0.564-0.22 1.411-0.48 2.971-0.552 1.476-0.067 2.048-0.087 5.030-0.090v0.004zM24.542 5.539c-1.060 0-1.92 0.859-1.92 1.919s0.86 1.92 1.92 1.92c1.060 0 1.92-0.86 1.92-1.92s-0.86-1.92-1.92-1.92v0.001zM7.784 15.999c0-4.538 3.679-8.217 8.217-8.217s8.216 3.679 8.216 8.217-3.678 8.216-8.216 8.216c-4.538 0-8.217-3.678-8.217-8.216zM21.334 15.999c0-2.946-2.388-5.334-5.334-5.334s-5.334 2.388-5.334 5.334c0 2.945 2.388 5.334 5.334 5.334s5.334-2.388 5.334-5.334z"></path>
</symbol>
<symbol id="icon-mail" viewBox="0 0 38 32">
<path d="M19.199 13.737c3.271 0 19.175-8.944 19.175-8.944l0.026-1.598c0-1.764-1.432-3.196-3.201-3.196h-32c-1.767 0-3.199 1.432-3.199 3.196v1.424c0 0 16.078 9.118 19.199 9.118zM19.199 18.132c-3.121 0-19.175-8.544-19.174-8.544l-0.026 19.175c0 1.764 1.433 3.196 3.199 3.196h32c1.769 0 3.201-1.432 3.201-3.196l-0.026-19.175c0 0-15.754 8.544-19.175 8.544z"></path>
</symbol>
<symbol id="icon-twitter" viewBox="0 0 38 32">
<path d="M18.28 8.276l0.082 1.346-1.36-0.165c-4.951-0.632-9.276-2.774-12.948-6.371l-1.795-1.785-0.462 1.318c-0.979 2.938-0.354 6.042 1.687 8.129 1.088 1.153 0.843 1.318-1.034 0.632-0.653-0.22-1.224-0.384-1.278-0.302-0.19 0.192 0.462 2.691 0.979 3.68 0.707 1.373 2.149 2.719 3.727 3.515l1.333 0.632-1.578 0.027c-1.523 0-1.578 0.027-1.415 0.604 0.544 1.785 2.693 3.68 5.087 4.504l1.687 0.577-1.469 0.879c-2.176 1.263-4.733 1.977-7.29 2.032-1.224 0.027-2.231 0.137-2.231 0.22 0 0.275 3.319 1.813 5.25 2.417 5.794 1.785 12.676 1.016 17.845-2.032 3.672-2.169 7.345-6.481 9.058-10.655 0.925-2.224 1.85-6.289 1.85-8.239 0-1.263 0.081-1.428 1.605-2.938 0.898-0.879 1.741-1.84 1.904-2.115 0.272-0.522 0.245-0.522-1.143-0.055-2.312 0.824-2.639 0.714-1.496-0.522 0.843-0.879 1.85-2.472 1.85-2.938 0-0.082-0.408 0.055-0.87 0.302-0.49 0.275-1.578 0.687-2.394 0.934l-1.469 0.467-1.333-0.906c-0.735-0.494-1.768-1.044-2.312-1.208-1.387-0.384-3.509-0.33-4.76 0.11-3.4 1.236-5.549 4.421-5.304 7.909z"></path>
</symbol>
<symbol id="icon-vk" viewBox="0 0 53 32">
<path d="M29.282 29.742c0 0 0.963-0.105 1.456-0.625 0.451-0.476 0.435-1.375 0.435-1.375s-0.060-4.197 1.925-4.816c1.957-0.609 4.469 4.059 7.134 5.854 2.014 1.357 3.542 1.060 3.542 1.060l7.124-0.097c0 0 3.725-0.225 1.959-3.101-0.146-0.236-1.030-2.128-5.295-6.015-4.469-4.069-3.869-3.411 1.51-10.45 3.277-4.286 4.586-6.903 4.176-8.022-0.389-1.070-2.799-0.786-2.799-0.786l-8.019 0.049c0 0-0.595-0.079-1.035 0.179-0.43 0.254-0.71 0.845-0.71 0.845s-1.268 3.316-2.961 6.138c-3.571 5.951-4.998 6.266-5.582 5.897-1.359-0.863-1.020-3.462-1.020-5.308 0-5.769 0.892-8.173-1.735-8.795-0.871-0.207-1.513-0.343-3.743-0.366-2.862-0.028-5.282 0.010-6.654 0.668-0.913 0.438-1.617 1.416-1.187 1.472 0.53 0.069 1.729 0.317 2.366 1.168 0.822 1.098 0.793 3.562 0.793 3.562s0.472 6.791-1.103 7.633c-1.080 0.579-2.562-0.602-5.747-6.002-1.63-2.765-2.862-5.823-2.862-5.823s-0.237-0.571-0.663-0.878c-0.514-0.371-1.231-0.486-1.231-0.486l-7.62 0.049c0 0-1.145 0.031-1.565 0.52-0.373 0.433-0.029 1.331-0.029 1.331s5.966 13.701 12.722 20.607c6.195 6.33 13.228 5.915 13.228 5.915h3.188z"></path>
</symbol>
<symbol id="icon-facebook" viewBox="0 0 16 32">
<path d="M9.929 32v-16.002h4.417l0.585-5.514h-5.003l0.008-2.76c0-1.438 0.137-2.209 2.202-2.209h2.761v-5.515h-4.418c-5.307 0-7.174 2.675-7.174 7.174v3.311h-3.308v5.514h3.308v16.001h6.621z"></path>
</symbol>
<symbol id="icon-linkedin" viewBox="0 0 32 32">
<path d="M7.264 9.934h-6.859v20.608h6.859v-20.608zM7.716 3.56c-0.045-2.021-1.489-3.56-3.836-3.56s-3.88 1.539-3.88 3.56c0 1.979 1.489 3.562 3.791 3.562h0.044c2.392 0 3.881-1.583 3.881-3.562zM32 18.726c0-6.33-3.384-9.276-7.897-9.276-3.642 0-5.272 2-6.182 3.403v-2.919h-6.86c0.090 1.934 0 20.608 0 20.608h6.86v-11.509c0-0.616 0.045-1.23 0.226-1.671 0.496-1.23 1.624-2.504 3.519-2.504 2.483 0 3.475 1.89 3.475 4.659v11.025h6.858l0-11.816z"></path>
</symbol>
<symbol id="icon-viber" viewBox="0 0 30 32">
<path d="M15.302 30.36c8.366-0.003 15.171-6.81 15.174-15.174 0.002-4.054-1.575-7.867-4.44-10.735s-6.675-4.449-10.734-4.45c-8.364 0-15.171 6.807-15.175 15.173-0.001 2.675 0.698 5.285 2.026 7.586l-2.153 7.863 8.044-2.11c2.216 1.209 4.712 1.846 7.251 1.847h0.006zM8.417 25.765l-4.774 1.252 1.274-4.654-0.3-0.477c-1.263-2.008-1.929-4.329-1.928-6.712 0.003-6.954 5.661-12.611 12.618-12.611 3.369 0.001 6.535 1.315 8.917 3.699s3.692 5.553 3.691 8.923c-0.003 6.954-5.661 12.612-12.612 12.612h-0.005c-2.263-0.001-4.483-0.609-6.419-1.758l-0.461-0.273zM22.427 18.452c0.264 0.128 0.443 0.214 0.519 0.341 0.095 0.158 0.095 0.917-0.221 1.803s-1.831 1.694-2.559 1.803c-0.653 0.098-1.48 0.138-2.388-0.15-0.551-0.175-1.257-0.408-2.162-0.799-3.554-1.535-5.957-4.98-6.411-5.631-0.032-0.046-0.054-0.078-0.066-0.094l-0.003-0.004c-0.201-0.268-1.545-2.062-1.545-3.918 0-1.746 0.858-2.662 1.253-3.083 0.027-0.029 0.052-0.055 0.074-0.080 0.348-0.38 0.758-0.475 1.011-0.475s0.506 0.002 0.727 0.013c0.027 0.001 0.056 0.001 0.085 0.001 0.221-0.001 0.496-0.003 0.768 0.65 0.105 0.251 0.258 0.624 0.419 1.016 0.326 0.794 0.687 1.672 0.75 1.799 0.095 0.19 0.158 0.411 0.032 0.664-0.019 0.038-0.037 0.074-0.053 0.108-0.095 0.194-0.165 0.336-0.326 0.524-0.063 0.074-0.129 0.154-0.194 0.233-0.13 0.159-0.261 0.318-0.374 0.431-0.19 0.189-0.387 0.394-0.166 0.774s0.982 1.621 2.109 2.627c1.212 1.081 2.265 1.538 2.798 1.769 0.104 0.045 0.189 0.082 0.251 0.113 0.379 0.19 0.6 0.158 0.821-0.095s0.948-1.107 1.201-1.487c0.253-0.379 0.506-0.316 0.853-0.19s2.212 1.044 2.591 1.234c0.074 0.037 0.143 0.070 0.207 0.102z"></path>
</symbol>
<symbol id="icon-benefit-1" viewBox="0 0 32 32">
<path d="M16 0c8.837 0 16 7.163 16 16s-7.163 16-16 16c-8.837 0-16-7.163-16-16s7.163-16 16-16zM16 0.696c-8.452 0-15.304 6.852-15.304 15.304s6.852 15.304 15.304 15.304c8.452 0 15.304-6.852 15.304-15.304s-6.852-15.304-15.304-15.304zM22.571 8.666c0 3.086 2.573 3.184 2.859 3.184 0.167 0 0.31 0.147 0.31 0.318 0 0.196-0.143 0.343-0.31 0.343h-0.024c-0.286 0-2.859 0.098-2.859 3.184 0 0.196-0.143 0.343-0.286 0.294-0.167 0-0.31-0.147-0.31-0.318 0-3.086-2.549-3.184-2.859-3.184-0.167 0-0.31-0.147-0.31-0.318s0.119-0.294 0.286-0.318h0.024c0.286 0 2.859-0.098 2.859-3.184 0-0.171 0.143-0.318 0.31-0.318s0.31 0.147 0.31 0.318zM20.522 12.194c0.643 0.294 1.31 0.808 1.715 1.739 0.381-0.882 1.024-1.445 1.715-1.739-0.643-0.294-1.334-0.808-1.715-1.739-0.381 0.882-1.024 1.445-1.715 1.739zM19.853 17.402c0.096 0.025 0.215 0.075 0.263 0.175 0.072 0.1 0.072 0.225 0.024 0.325-0.072 0.1-0.168 0.175-0.287 0.175-0.551 0-5.268 0.225-5.268 5.947 0 0.175-0.144 0.325-0.311 0.325s-0.311-0.15-0.311-0.325c0-5.747-4.717-5.947-5.268-5.947h-0.024c-0.12 0-0.239-0.075-0.287-0.175s-0.048-0.225 0-0.325c0.007-0.008 0.015-0.017 0.022-0.028 0.018-0.025 0.040-0.054 0.073-0.072 0.048-0.050 0.12-0.075 0.192-0.075 0.527 0 5.268-0.2 5.268-5.947 0-0.175 0.144-0.325 0.311-0.325s0.311 0.15 0.311 0.325c0 5.747 4.741 5.947 5.292 5.947zM10.515 17.727c1.341 0.45 3.041 1.474 3.735 3.848 0.694-2.374 2.395-3.398 3.735-3.848-1.341-0.45-3.041-1.474-3.735-3.848-0.694 2.374-2.394 3.398-3.735 3.848z"></path>
</symbol>
<symbol id="icon-benefit-2" viewBox="0 0 32 32">
<path d="M16 0c8.837 0 16 7.163 16 16s-7.163 16-16 16c-8.837 0-16-7.163-16-16s7.163-16 16-16zM16 0.696c-8.452 0-15.304 6.852-15.304 15.304s6.852 15.304 15.304 15.304c8.452 0 15.304-6.852 15.304-15.304s-6.852-15.304-15.304-15.304zM21.844 12.648c-0.25-0.259-0.595-0.412-0.988-0.412h-1.976v-0.024c0-0.294-0.119-0.576-0.321-0.765-0.202-0.2-0.476-0.318-0.774-0.318h-3.571c-0.309 0-0.583 0.118-0.786 0.318s-0.321 0.471-0.321 0.765v0.024h-1.964c-0.393 0-0.738 0.153-0.988 0.412-0.25 0.247-0.417 0.6-0.417 0.976v5.858c0 0.388 0.155 0.729 0.417 0.976 0.25 0.247 0.607 0.412 0.988 0.412h9.713c0.393 0 0.738-0.153 0.988-0.412 0.25-0.247 0.417-0.6 0.417-0.976v-5.858c0-0.388-0.155-0.729-0.417-0.976zM21.642 19.482h-0.012c0 0.212-0.083 0.4-0.226 0.541s-0.333 0.224-0.548 0.224h-9.713c-0.214 0-0.405-0.082-0.548-0.224s-0.226-0.329-0.226-0.541v-5.858c0-0.212 0.083-0.4 0.226-0.541s0.333-0.223 0.548-0.223h2.297c0.178 0 0.321-0.141 0.321-0.318v-0.341c0-0.129 0.048-0.247 0.131-0.329s0.202-0.129 0.333-0.129h3.559c0.131 0 0.25 0.047 0.333 0.129s0.131 0.2 0.131 0.329v0.341c0 0.176 0.143 0.318 0.321 0.318h2.297c0.214 0 0.405 0.082 0.548 0.223s0.226 0.329 0.226 0.541v5.858zM16 13.913c-0.769 0-1.47 0.317-1.968 0.814-0.509 0.509-0.814 1.199-0.814 1.968s0.317 1.47 0.814 1.968c0.509 0.509 1.199 0.814 1.968 0.814s1.47-0.317 1.968-0.814c0.509-0.509 0.814-1.199 0.814-1.968s-0.317-1.47-0.814-1.968c-0.498-0.498-1.199-0.814-1.968-0.814zM17.538 18.245c-0.396 0.385-0.939 0.633-1.538 0.633s-1.142-0.249-1.538-0.633c-0.396-0.396-0.633-0.939-0.633-1.538s0.249-1.142 0.633-1.538c0.396-0.396 0.939-0.633 1.538-0.633s1.142 0.249 1.538 0.633c0.396 0.396 0.633 0.939 0.633 1.538 0.011 0.599-0.238 1.142-0.633 1.538zM20.174 14.609c0.384 0 0.696-0.311 0.696-0.696s-0.311-0.696-0.696-0.696c-0.384 0-0.696 0.311-0.696 0.696s0.311 0.696 0.696 0.696z"></path>
</symbol>
<symbol id="icon-benefit-3" viewBox="0 0 32 32">
<path d="M16 0c8.837 0 16 7.163 16 16s-7.163 16-16 16c-8.837 0-16-7.163-16-16s7.163-16 16-16zM16 0.696c-8.452 0-15.304 6.852-15.304 15.304s6.852 15.304 15.304 15.304c8.452 0 15.304-6.852 15.304-15.304s-6.852-15.304-15.304-15.304zM10.212 18.048c-0.026 0.026-0.059 0.039-0.1 0.039h-0.501c-0.037 0-0.069-0.013-0.095-0.039s-0.039-0.058-0.039-0.095v-3.623c0-0.041 0.012-0.074 0.036-0.1s0.057-0.039 0.097-0.039h2.421c0.041 0 0.074 0.013 0.1 0.039s0.039 0.059 0.039 0.1v0.401c0 0.037-0.013 0.069-0.039 0.095s-0.059 0.039-0.1 0.039h-1.781v1.046h1.67c0.041 0 0.074 0.013 0.1 0.039s0.039 0.058 0.039 0.095v0.401c0 0.037-0.013 0.069-0.039 0.095s-0.059 0.039-0.1 0.039h-1.67v1.375c0 0.037-0.013 0.069-0.039 0.095zM13.574 18.048c-0.026 0.026-0.059 0.039-0.1 0.039h-0.512c-0.037 0-0.069-0.013-0.095-0.039s-0.039-0.058-0.039-0.095v-3.623c0-0.041 0.012-0.074 0.036-0.1s0.057-0.039 0.097-0.039h1.441c0.456 0 0.813 0.106 1.071 0.317s0.387 0.512 0.387 0.902c0 0.271-0.065 0.498-0.195 0.682s-0.312 0.316-0.545 0.398l0.807 1.419c0.011 0.022 0.017 0.043 0.017 0.061 0 0.033-0.012 0.061-0.036 0.083s-0.051 0.033-0.081 0.033h-0.512c-0.059 0-0.106-0.014-0.139-0.042s-0.063-0.064-0.089-0.109l-0.712-1.319h-0.762v1.336c0 0.037-0.013 0.069-0.039 0.095zM13.613 15.983h0.774c0.223 0 0.39-0.049 0.501-0.147s0.167-0.242 0.167-0.431c0-0.189-0.056-0.335-0.167-0.437s-0.278-0.153-0.501-0.153h-0.774v1.169zM19.35 17.953c0 0.041-0.013 0.073-0.039 0.097s-0.059 0.036-0.1 0.036h-2.499c-0.037 0-0.069-0.013-0.095-0.039s-0.039-0.058-0.039-0.095v-3.623c0-0.041 0.012-0.074 0.036-0.1s0.057-0.039 0.097-0.039h2.454c0.041 0 0.074 0.013 0.1 0.039s0.039 0.059 0.039 0.1v0.373c0 0.041-0.013 0.073-0.039 0.097s-0.059 0.036-0.1 0.036h-1.825v0.974h1.703c0.041 0 0.074 0.013 0.1 0.039s0.039 0.059 0.039 0.1v0.351c0 0.041-0.013 0.073-0.039 0.097s-0.059 0.036-0.1 0.036h-1.703v1.007h1.87c0.041 0 0.074 0.012 0.1 0.036s0.039 0.057 0.039 0.097v0.378zM22.817 17.953c0 0.041-0.013 0.073-0.039 0.097s-0.059 0.036-0.1 0.036h-2.499c-0.037 0-0.069-0.013-0.095-0.039s-0.039-0.058-0.039-0.095v-3.623c0-0.041 0.012-0.074 0.036-0.1s0.057-0.039 0.097-0.039h2.454c0.041 0 0.074 0.013 0.1 0.039s0.039 0.059 0.039 0.1v0.373c0 0.041-0.013 0.073-0.039 0.097s-0.059 0.036-0.1 0.036h-1.825v0.974h1.703c0.041 0 0.074 0.013 0.1 0.039s0.039 0.059 0.039 0.1v0.351c0 0.041-0.013 0.073-0.039 0.097s-0.059 0.036-0.1 0.036h-1.703v1.007h1.87c0.041 0 0.074 0.012 0.1 0.036s0.039 0.057 0.039 0.097v0.378z"></path>
</symbol>
<symbol id="icon-plus" viewBox="0 0 35 32">
<path d="M18.56 32c1.414 0 2.56-1.146 2.56-2.56v-11.113h11.113c1.285 0 2.327-1.042 2.327-2.327s-1.042-2.327-2.327-2.327h-11.113v-11.113c0-1.414-1.146-2.56-2.56-2.56s-2.56 1.146-2.56 2.56v11.113h-11.113c-1.285 0-2.327 1.042-2.327 2.327s1.042 2.327 2.327 2.327h11.113v11.113c0 1.414 1.146 2.56 2.56 2.56z"></path>
</symbol>
<symbol id="icon-minus" viewBox="0 0 176 32">
<path d="M12.8 16c0-7.069 5.731-12.8 12.8-12.8h134.4c7.069 0 12.8 5.731 12.8 12.8s-5.731 12.8-12.8 12.8h-134.4c-7.069 0-12.8-5.731-12.8-12.8z"></path>
</symbol>
<symbol id="icon-check" viewBox="0 0 48 32">
<path d="M43.472 0.757c1.055-1.028 2.743-1.007 3.771 0.048 0.914 0.937 0.998 2.376 0.265 3.406l-0.313 0.365-27.354 26.667c-0.906 0.883-2.284 0.994-3.308 0.331l-0.415-0.331-15.313-14.928c-1.055-1.028-1.076-2.716-0.048-3.771 0.914-0.937 2.349-1.059 3.398-0.352l0.373 0.304 13.451 13.109 25.493-24.848z"></path>
</symbol>
<symbol id="icon-Search" viewBox="0 0 32 32">
<path d="M13.694 22.054c-4.617 0-8.36-3.743-8.36-8.36s3.743-8.36 8.36-8.36c4.617 0 8.36 3.743 8.36 8.36 0 1.997-0.7 3.831-1.869 5.269l6.228 6.228c0.338 0.338 0.338 0.885 0 1.223s-0.885 0.338-1.223 0l-6.228-6.228c-1.438 1.168-3.271 1.869-5.269 1.869zM13.694 20.324c3.662 0 6.631-2.969 6.631-6.631s-2.969-6.631-6.631-6.631c-3.662 0-6.631 2.969-6.631 6.631s2.969 6.631 6.631 6.631z"></path>
</symbol>
</defs>
</svg>
