<svg width="112" height="15" fill="none" xmlns="http://www.w3.org/2000/svg"><path d="M6.52.76c.8 0 1.493.1 2.08.3a4.587 4.587 0 011.52.8c.84.68 1.387 1.633 1.64 2.86l-2.52.46c-.213-.68-.547-1.227-1-1.64-.44-.427-.993-.64-1.66-.64-.907 0-1.64.38-2.2 1.14-.6.827-.9 1.973-.9 3.44 0 1.453.267 2.593.8 3.42.533.813 1.26 1.22 2.18 1.22.92 0 1.613-.22 2.08-.66.467-.453.7-1.033.7-1.74h2.54c0 1.453-.467 2.58-1.4 3.38-.92.787-2.187 1.18-3.8 1.18-1.72 0-3.087-.6-4.1-1.8-1.027-1.227-1.54-2.893-1.54-5 0-2.133.527-3.8 1.58-5C3.533 1.333 4.867.76 6.52.76zM17.536 1.02h2.96L24.756 14h-2.5l-.9-2.8h-4.82l-.92 2.8h-2.5l4.42-12.98zm-.4 8.4h3.64l-1.8-5.58-1.84 5.58zM33.875 4.6c-.213-1.133-1.013-1.7-2.4-1.7-.68 0-1.213.14-1.6.42-.373.267-.56.593-.56.98s.12.693.36.92c.254.213.64.413 1.16.6l2.82 1.1c.96.373 1.7.847 2.22 1.42.52.56.78 1.267.78 2.12 0 1.173-.44 2.107-1.32 2.8-.88.68-2.133 1.02-3.76 1.02-1.44 0-2.606-.353-3.5-1.06-1-.773-1.526-1.867-1.58-3.28h2.34c0 1.067.554 1.74 1.66 2.02.334.093.774.14 1.32.14.547 0 1.054-.133 1.52-.4.467-.28.7-.647.7-1.1 0-.467-.126-.82-.38-1.06-.253-.253-.666-.487-1.24-.7l-2.58-1.02c-1-.387-1.766-.84-2.3-1.36-.533-.52-.8-1.24-.8-2.16 0-1.08.42-1.933 1.26-2.56.854-.653 2.007-.98 3.46-.98 1.467 0 2.594.34 3.38 1.02.8.667 1.26 1.607 1.38 2.82h-2.34zM46.63 4.6c-.214-1.133-1.014-1.7-2.4-1.7-.68 0-1.214.14-1.6.42-.374.267-.56.593-.56.98s.12.693.36.92c.252.213.64.413 1.16.6l2.82 1.1c.96.373 1.7.847 2.22 1.42.52.56.78 1.267.78 2.12 0 1.173-.44 2.107-1.32 2.8-.88.68-2.134 1.02-3.76 1.02-1.44 0-2.608-.353-3.5-1.06-1-.773-1.527-1.867-1.58-3.28h2.34c0 1.067.552 1.74 1.66 2.02.333.093.773.14 1.32.14.546 0 1.053-.133 1.52-.4.466-.28.7-.647.7-1.1 0-.467-.127-.82-.38-1.06-.254-.253-.667-.487-1.24-.7l-2.58-1.02c-1-.387-1.768-.84-2.3-1.36-.534-.52-.8-1.24-.8-2.16 0-1.08.42-1.933 1.26-2.56.852-.653 2.006-.98 3.46-.98 1.466 0 2.593.34 3.38 1.02.8.667 1.26 1.607 1.38 2.82h-2.34zM52.563 1.02h2.36V14h-2.36V1.02zM63.617.76c.867 0 1.66.147 2.38.44.72.28 1.34.7 1.86 1.26 1.094 1.173 1.64 2.853 1.64 5.04 0 2.2-.546 3.9-1.64 5.1-1.04 1.12-2.46 1.68-4.26 1.68-1.786 0-3.2-.573-4.24-1.72-1.093-1.187-1.64-2.873-1.64-5.06 0-2.213.547-3.907 1.64-5.08 1.027-1.107 2.447-1.66 4.26-1.66zm3.44 6.78c0-1.493-.313-2.64-.94-3.44-.613-.813-1.446-1.22-2.5-1.22-1.053 0-1.893.407-2.52 1.22-.626.8-.94 1.947-.94 3.44 0 1.48.314 2.62.94 3.42.627.787 1.467 1.18 2.52 1.18 1.054 0 1.887-.393 2.5-1.18.627-.8.94-1.94.94-3.42zM76.81 1.02c1.466 0 2.606.36 3.42 1.08.826.707 1.24 1.727 1.24 3.06 0 1.32-.414 2.34-1.24 3.06-.814.707-1.954 1.06-3.42 1.06h-2.2V14h-2.38V1.02h4.58zm0 6.2c.733 0 1.286-.193 1.66-.58.373-.387.56-.88.56-1.48 0-.613-.187-1.113-.56-1.5-.374-.4-.927-.6-1.66-.6h-2.2v4.16h2.2zM83.89 1.02h8.36v2.04h-6v3.42h5.62v2.04h-5.62v3.42h6V14h-8.36V1.02zM95.63 1.02h2.36V14h-2.36V1.02zM104.704 1.02h2.96l4.26 12.98h-2.5l-.9-2.8h-4.82l-.92 2.8h-2.5l4.42-12.98zm-.4 8.4h3.64l-1.8-5.58-1.84 5.58z" fill="#000"/></svg>